<?xml version="1.0" encoding="UTF-8"?>
<!-- Generator: Adobe Illustrator 16.0.0, SVG Export Plug-In . SVG Version: 6.00 Build 0)  -->
<!DOCTYPE svg PUBLIC "-//W3C//DTD SVG 1.1//EN" "http://www.w3.org/Graphics/SVG/1.1/DTD/svg11.dtd">
<svg version="1.1" xmlns="http://www.w3.org/2000/svg" xmlns:xlink="http://www.w3.org/1999/xlink" x="0px" y="0px" width="269.241px" height="69px" viewBox="0 0 269.241 69" enable-background="new 0 0 269.241 69" xml:space="preserve">
<g id="Vrstva_2" display="none">
	<rect x="-136.19" y="-95.5" display="inline" width="473" height="107"/>
	<g display="inline">
		<path fill="#FE6D6D" d="M68.741-25.769c-4.053,4.054-8.878,6.08-14.475,6.08c-5.598,0-10.375-1.978-14.331-5.935    C35.978-29.581,34-34.357,34-39.955c0-5.597,1.978-10.373,5.935-14.33c3.956-3.957,8.733-5.936,14.331-5.936    c5.597,0,10.374,1.979,14.331,5.936c3.956,3.957,5.935,8.733,5.935,14.33v17.37c0,0.797-0.284,1.479-0.85,2.045    c-0.567,0.567-1.249,0.851-2.045,0.851c-0.796,0-1.478-0.283-2.044-0.851c-0.567-0.566-0.851-1.248-0.851-2.045V-25.769z     M54.266-54.429c-4.005,0-7.419,1.41-10.241,4.233c-2.823,2.823-4.234,6.237-4.234,10.241c0,4.005,1.412,7.419,4.234,10.241    c2.822,2.823,6.236,4.234,10.241,4.234c4.004,0,7.418-1.411,10.241-4.234c2.823-2.822,4.234-6.236,4.234-10.241    c0-4.004-1.411-7.418-4.234-10.241S58.27-54.429,54.266-54.429z"/>
		<path fill="#FFFFFF" d="M80.321-57.325c0-0.796,0.283-1.478,0.851-2.045c0.566-0.566,1.249-0.851,2.044-0.851    c0.796,0,1.478,0.284,2.045,0.851c0.566,0.567,0.85,1.249,0.85,2.045v2.353c3.619-3.498,7.961-5.248,13.028-5.248    c5.187,0,9.62,1.84,13.3,5.52c3.678,3.679,5.518,8.112,5.518,13.299v18.817c0,0.797-0.283,1.479-0.85,2.045    c-0.567,0.567-1.248,0.851-2.045,0.851c-0.796,0-1.479-0.283-2.045-0.851c-0.566-0.566-0.85-1.248-0.85-2.045v-18.817    c0-3.595-1.273-6.664-3.818-9.21c-2.545-2.545-5.615-3.817-9.21-3.817s-6.665,1.272-9.21,3.817    c-2.545,2.546-3.818,5.615-3.818,9.21v18.817c0,0.797-0.284,1.479-0.85,2.045c-0.567,0.567-1.249,0.851-2.045,0.851    c-0.796,0-1.478-0.283-2.044-0.851c-0.567-0.566-0.851-1.248-0.851-2.045V-57.325z"/>
		<path fill="#FFFFFF" d="M159.217-38.659c0.626-0.492,1.337-0.691,2.132-0.597c0.797,0.095,1.441,0.455,1.934,1.08    s0.699,1.338,0.621,2.136c-0.924,4.872-3.375,8.875-7.356,12.009c-4.398,3.462-9.375,4.863-14.931,4.201    c-5.558-0.662-10.065-3.192-13.527-7.591c-3.463-4.397-4.863-9.374-4.201-14.931c0.661-5.557,3.191-10.065,7.59-13.528    c4.396-3.461,9.375-4.861,14.932-4.199s10.064,3.191,13.526,7.59c0.493,0.625,0.691,1.337,0.597,2.133    c-0.094,0.796-0.455,1.44-1.08,1.933l-24.824,19.541c2.133,1.852,4.689,2.955,7.671,3.31c3.964,0.473,7.52-0.53,10.667-3.008    c2.844-2.238,4.58-5.063,5.21-8.476C158.339-37.707,158.687-38.241,159.217-38.659z M153.397-51.025    c-2.133-1.853-4.69-2.956-7.672-3.312c-3.964-0.473-7.519,0.531-10.665,3.008c-3.147,2.478-4.958,5.697-5.43,9.661    c-0.355,2.981,0.117,5.727,1.416,8.235L153.397-51.025z"/>
		<path fill="#FFFFFF" d="M175.858-54.14c0.048-0.049,0.097-0.096,0.146-0.145c3.955-3.957,8.732-5.936,14.33-5.936    c5.597,0,10.373,1.979,14.33,5.936s5.936,8.733,5.936,14.33c0,5.598-1.979,10.374-5.936,14.331s-8.733,5.935-14.33,5.935    c-5.598,0-10.375-1.978-14.33-5.935c-3.957-3.957-5.936-8.733-5.936-14.331v-34.813c0-0.797,0.283-1.479,0.851-2.045    c0.566-0.566,1.249-0.851,2.044-0.851c0.797,0,1.479,0.284,2.045,0.851s0.851,1.248,0.851,2.045V-54.14z M190.333-25.479    c4.004,0,7.418-1.411,10.241-4.234c2.823-2.822,4.233-6.236,4.233-10.241c0-4.004-1.41-7.418-4.233-10.241    s-6.237-4.233-10.241-4.233c-4.006,0-7.419,1.41-10.241,4.233c-2.823,2.823-4.234,6.237-4.234,10.241    c0,4.005,1.411,7.419,4.234,10.241C182.915-26.89,186.328-25.479,190.333-25.479z"/>
		<path fill="#FFFFFF" d="M256.919-39.955c0,5.598-1.979,10.374-5.934,14.331c-3.957,3.957-8.734,5.935-14.332,5.935    c-5.596,0-10.373-1.978-14.33-5.935s-5.935-8.733-5.935-14.331c0-5.597,1.978-10.373,5.935-14.33s8.734-5.936,14.33-5.936    c5.598,0,10.375,1.979,14.332,5.936C254.941-50.328,256.919-45.551,256.919-39.955z M236.654-54.429    c-4.004,0-7.418,1.41-10.24,4.233s-4.234,6.237-4.234,10.241c0,4.005,1.412,7.419,4.234,10.241    c2.822,2.823,6.236,4.234,10.24,4.234c4.006,0,7.42-1.411,10.242-4.234c2.822-2.822,4.234-6.236,4.234-10.241    c0-4.004-1.412-7.418-4.234-10.241S240.66-54.429,236.654-54.429z"/>
		<path fill="#FFFFFF" d="M303.241-39.955c0,5.598-1.979,10.374-5.936,14.331s-8.734,5.935-14.33,5.935    c-5.598,0-10.375-1.978-14.33-5.935c-3.957-3.957-5.936-8.733-5.936-14.331c0-5.597,1.979-10.373,5.936-14.33    c3.955-3.957,8.732-5.936,14.33-5.936c5.596,0,10.373,1.979,14.33,5.936S303.241-45.551,303.241-39.955z M282.976-54.429    c-4.006,0-7.418,1.41-10.242,4.233c-2.822,2.823-4.232,6.237-4.232,10.241c0,4.005,1.41,7.419,4.232,10.241    c2.824,2.823,6.236,4.234,10.242,4.234c4.004,0,7.418-1.411,10.24-4.234c2.824-2.822,4.234-6.236,4.234-10.241    c0-4.004-1.41-7.418-4.234-10.241C290.394-53.019,286.979-54.429,282.976-54.429z"/>
	</g>
	<g display="inline">
		<path fill="#FE6D6D" d="M73.441,69.24c-4.053,4.054-8.878,6.08-14.475,6.08c-5.598,0-10.375-1.978-14.331-5.935    c-3.957-3.957-5.935-8.733-5.935-14.331c0-5.597,1.978-10.373,5.935-14.33c3.956-3.957,8.733-5.936,14.331-5.936    c5.597,0,10.374,1.979,14.331,5.936c3.956,3.957,5.935,8.733,5.935,14.33v17.37c0,0.797-0.284,1.479-0.85,2.045    c-0.567,0.567-1.249,0.851-2.045,0.851c-0.796,0-1.478-0.283-2.044-0.851c-0.567-0.566-0.851-1.248-0.851-2.045V69.24z     M58.966,40.58c-4.005,0-7.419,1.41-10.241,4.233c-2.823,2.823-4.234,6.237-4.234,10.241c0,4.005,1.412,7.419,4.234,10.241    c2.822,2.823,6.236,4.234,10.241,4.234c4.004,0,7.418-1.411,10.241-4.234c2.823-2.822,4.234-6.236,4.234-10.241    c0-4.004-1.411-7.418-4.234-10.241S62.971,40.58,58.966,40.58z"/>
		<path d="M85.022,37.685c0-0.796,0.283-1.478,0.851-2.045c0.566-0.566,1.249-0.851,2.044-0.851c0.796,0,1.478,0.284,2.045,0.851    c0.566,0.567,0.85,1.249,0.85,2.045v2.353c3.619-3.498,7.961-5.248,13.028-5.248c5.187,0,9.62,1.84,13.3,5.52    c3.678,3.679,5.518,8.112,5.518,13.299v18.817c0,0.797-0.283,1.479-0.85,2.045c-0.567,0.567-1.248,0.851-2.045,0.851    c-0.796,0-1.479-0.283-2.045-0.851c-0.566-0.566-0.85-1.248-0.85-2.045V53.607c0-3.595-1.273-6.664-3.818-9.21    c-2.545-2.545-5.615-3.817-9.21-3.817s-6.665,1.272-9.21,3.817c-2.545,2.546-3.818,5.615-3.818,9.21v18.817    c0,0.797-0.284,1.479-0.85,2.045c-0.567,0.567-1.249,0.851-2.045,0.851c-0.796,0-1.478-0.283-2.044-0.851    c-0.567-0.566-0.851-1.248-0.851-2.045V37.685z"/>
		<path d="M163.918,56.351c0.626-0.492,1.337-0.691,2.132-0.597c0.797,0.095,1.441,0.455,1.934,1.08s0.699,1.338,0.621,2.136    c-0.924,4.872-3.375,8.875-7.356,12.009c-4.398,3.462-9.375,4.863-14.931,4.201c-5.558-0.662-10.065-3.192-13.527-7.591    c-3.463-4.397-4.863-9.374-4.201-14.931c0.661-5.557,3.191-10.065,7.59-13.528c4.396-3.461,9.375-4.861,14.932-4.199    s10.064,3.191,13.526,7.59c0.493,0.625,0.691,1.337,0.597,2.133c-0.094,0.796-0.455,1.44-1.08,1.933l-24.824,19.541    c2.133,1.852,4.689,2.955,7.671,3.31c3.964,0.473,7.52-0.53,10.667-3.008c2.844-2.238,4.58-5.063,5.21-8.476    C163.04,57.303,163.388,56.769,163.918,56.351z M158.098,43.984c-2.133-1.853-4.69-2.956-7.672-3.312    c-3.964-0.473-7.519,0.531-10.665,3.008c-3.147,2.478-4.958,5.697-5.43,9.661c-0.355,2.981,0.117,5.727,1.416,8.235    L158.098,43.984z"/>
		<path d="M180.559,40.869c0.048-0.049,0.097-0.096,0.146-0.145c3.955-3.957,8.732-5.936,14.33-5.936    c5.597,0,10.373,1.979,14.33,5.936s5.936,8.733,5.936,14.33c0,5.598-1.979,10.374-5.936,14.331s-8.733,5.935-14.33,5.935    c-5.598,0-10.375-1.978-14.33-5.935c-3.957-3.957-5.936-8.733-5.936-14.331V20.242c0-0.797,0.283-1.479,0.851-2.045    c0.566-0.566,1.249-0.851,2.044-0.851c0.797,0,1.479,0.284,2.045,0.851s0.851,1.248,0.851,2.045V40.869z M195.034,69.53    c4.004,0,7.418-1.411,10.241-4.234c2.823-2.822,4.233-6.236,4.233-10.241c0-4.004-1.41-7.418-4.233-10.241    s-6.237-4.233-10.241-4.233c-4.006,0-7.419,1.41-10.241,4.233c-2.823,2.823-4.234,6.237-4.234,10.241    c0,4.005,1.411,7.419,4.234,10.241C187.615,68.119,191.028,69.53,195.034,69.53z"/>
		<path d="M261.62,55.055c0,5.598-1.979,10.374-5.934,14.331c-3.957,3.957-8.734,5.935-14.332,5.935    c-5.596,0-10.373-1.978-14.33-5.935s-5.935-8.733-5.935-14.331c0-5.597,1.978-10.373,5.935-14.33s8.734-5.936,14.33-5.936    c5.598,0,10.375,1.979,14.332,5.936C259.642,44.682,261.62,49.458,261.62,55.055z M241.354,40.58c-4.004,0-7.418,1.41-10.24,4.233    s-4.234,6.237-4.234,10.241c0,4.005,1.412,7.419,4.234,10.241c2.822,2.823,6.236,4.234,10.24,4.234    c4.006,0,7.42-1.411,10.242-4.234c2.822-2.822,4.234-6.236,4.234-10.241c0-4.004-1.412-7.418-4.234-10.241    S245.36,40.58,241.354,40.58z"/>
		<path d="M307.941,55.055c0,5.598-1.979,10.374-5.935,14.331c-3.957,3.957-8.734,5.935-14.331,5.935s-10.374-1.978-14.33-5.935    c-3.957-3.957-5.935-8.733-5.935-14.331c0-5.597,1.978-10.373,5.935-14.33c3.956-3.957,8.733-5.936,14.33-5.936    s10.374,1.979,14.331,5.936C305.963,44.682,307.941,49.458,307.941,55.055z M287.676,40.58c-4.005,0-7.418,1.41-10.241,4.233    c-2.822,2.823-4.233,6.237-4.233,10.241c0,4.005,1.411,7.419,4.233,10.241c2.823,2.823,6.236,4.234,10.241,4.234    s7.419-1.411,10.241-4.234c2.823-2.822,4.234-6.236,4.234-10.241c0-4.004-1.411-7.418-4.234-10.241    C295.095,41.99,291.681,40.58,287.676,40.58z"/>
	</g>
	
		<text transform="matrix(1 0 0 1 -118.9951 67.8047)" display="inline" fill="#FE6D6D" font-family="'Comfortaa'" font-size="39.289">a</text>
	<text transform="matrix(1 0 0 1 -86.8286 65.8599)" display="inline" font-family="'Comfortaa'" font-size="31.0516">zprávy</text>
	<rect x="-92.19" y="40.5" display="inline" width="1" height="32"/>
	
		<text transform="matrix(1 0 0 1 -118.9951 109.8047)" display="inline" fill="#FE6D6D" font-family="'Comfortaa'" font-size="39.289">a</text>
	<text transform="matrix(1 0 0 1 -86.8286 107.8599)" display="inline" font-family="'Comfortaa'" font-size="31.0516">tipy</text>
	<rect x="-92.19" y="82.5" display="inline" width="1" height="32"/>
	
		<text transform="matrix(1 0 0 1 -119.9951 154.8047)" display="inline" fill="#FE6D6D" font-family="'Comfortaa'" font-size="39.289">a</text>
	<text transform="matrix(1 0 0 1 -87.8286 152.8599)" display="inline" font-family="'Comfortaa'" font-size="31.0516">blog</text>
	<rect x="-93.19" y="127.5" display="inline" width="1" height="32"/>
</g>
<g id="Vrstva_7">
	<g>
		<path fill="#FE6D6D" d="M34.741,58.231c-4.053,4.054-8.878,6.08-14.475,6.08c-5.598,0-10.375-1.978-14.331-5.935    C1.978,54.419,0,49.643,0,44.045c0-5.597,1.978-10.373,5.935-14.33c3.956-3.957,8.733-5.936,14.331-5.936    c5.597,0,10.374,1.979,14.331,5.936c3.956,3.957,5.935,8.733,5.935,14.33v17.37c0,0.797-0.284,1.479-0.85,2.045    c-0.567,0.567-1.249,0.851-2.045,0.851c-0.796,0-1.478-0.283-2.044-0.851c-0.567-0.566-0.851-1.248-0.851-2.045V58.231z     M20.266,29.571c-4.005,0-7.419,1.41-10.241,4.233C7.202,36.627,5.79,40.042,5.79,44.045c0,4.005,1.412,7.419,4.234,10.241    c2.822,2.823,6.236,4.234,10.241,4.234c4.004,0,7.418-1.411,10.241-4.234c2.823-2.822,4.234-6.236,4.234-10.241    c0-4.004-1.411-7.418-4.234-10.241S24.27,29.571,20.266,29.571z"/>
		<path d="M46.321,26.675c0-0.796,0.283-1.478,0.851-2.045c0.566-0.566,1.249-0.851,2.044-0.851c0.796,0,1.478,0.284,2.045,0.851    c0.566,0.567,0.85,1.249,0.85,2.045v2.353c3.619-3.498,7.961-5.248,13.028-5.248c5.187,0,9.62,1.84,13.3,5.52    c3.678,3.679,5.518,8.112,5.518,13.299v18.817c0,0.797-0.283,1.479-0.85,2.045c-0.567,0.567-1.248,0.851-2.045,0.851    c-0.796,0-1.479-0.283-2.045-0.851c-0.566-0.566-0.85-1.248-0.85-2.045V42.598c0-3.595-1.273-6.664-3.818-9.21    c-2.545-2.545-5.615-3.817-9.21-3.817s-6.665,1.272-9.21,3.817c-2.545,2.546-3.818,5.615-3.818,9.21v18.817    c0,0.797-0.284,1.479-0.85,2.045c-0.567,0.567-1.249,0.851-2.045,0.851c-0.796,0-1.478-0.283-2.044-0.851    c-0.567-0.566-0.851-1.248-0.851-2.045V26.675z"/>
		<path d="M125.218,45.341c0.625-0.492,1.336-0.691,2.131-0.597c0.797,0.095,1.441,0.455,1.934,1.08s0.699,1.338,0.621,2.136    c-0.924,4.872-3.375,8.875-7.355,12.009c-4.398,3.462-9.375,4.863-14.932,4.201s-10.064-3.192-13.527-7.591    c-3.462-4.397-4.863-9.374-4.201-14.931c0.661-5.557,3.191-10.065,7.589-13.528c4.396-3.461,9.375-4.861,14.932-4.199    s10.064,3.191,13.527,7.59c0.492,0.625,0.691,1.337,0.596,2.133c-0.094,0.796-0.455,1.44-1.08,1.933l-24.824,19.541    c2.133,1.852,4.689,2.955,7.672,3.31c3.963,0.473,7.52-0.53,10.666-3.008c2.844-2.238,4.58-5.063,5.211-8.476    C124.339,46.293,124.687,45.759,125.218,45.341z M119.397,32.975c-2.133-1.853-4.691-2.956-7.672-3.312    c-3.965-0.473-7.52,0.531-10.666,3.008c-3.146,2.478-4.957,5.697-5.43,9.661c-0.355,2.981,0.117,5.727,1.416,8.235L119.397,32.975    z"/>
		<path d="M141.858,29.86c0.047-0.049,0.096-0.096,0.145-0.145c3.955-3.957,8.732-5.936,14.33-5.936s10.373,1.979,14.33,5.936    s5.936,8.733,5.936,14.33c0,5.598-1.979,10.374-5.936,14.331s-8.732,5.935-14.33,5.935s-10.375-1.978-14.33-5.935    c-3.957-3.957-5.936-8.733-5.936-14.331V9.233c0-0.797,0.283-1.479,0.852-2.045c0.566-0.566,1.248-0.851,2.043-0.851    c0.797,0,1.479,0.284,2.045,0.851s0.852,1.248,0.852,2.045V29.86z M156.333,58.521c4.004,0,7.418-1.411,10.242-4.234    c2.822-2.822,4.232-6.236,4.232-10.241c0-4.004-1.41-7.418-4.232-10.241c-2.824-2.823-6.238-4.233-10.242-4.233    c-4.006,0-7.418,1.41-10.24,4.233c-2.824,2.823-4.234,6.237-4.234,10.241c0,4.005,1.41,7.419,4.234,10.241    C148.915,57.11,152.327,58.521,156.333,58.521z"/>
		<path d="M222.919,44.045c0,5.598-1.979,10.374-5.934,14.331c-3.957,3.957-8.734,5.935-14.332,5.935    c-5.596,0-10.373-1.978-14.33-5.935s-5.934-8.733-5.934-14.331c0-5.597,1.977-10.373,5.934-14.33s8.734-5.936,14.33-5.936    c5.598,0,10.375,1.979,14.332,5.936C220.94,33.672,222.919,38.449,222.919,44.045z M202.653,29.571    c-4.004,0-7.418,1.41-10.24,4.233s-4.234,6.237-4.234,10.241c0,4.005,1.412,7.419,4.234,10.241    c2.822,2.823,6.236,4.234,10.24,4.234c4.006,0,7.42-1.411,10.242-4.234c2.822-2.822,4.234-6.236,4.234-10.241    c0-4.004-1.412-7.418-4.234-10.241S206.659,29.571,202.653,29.571z"/>
		<path d="M269.241,44.045c0,5.598-1.979,10.374-5.936,14.331s-8.734,5.935-14.33,5.935c-5.598,0-10.375-1.978-14.33-5.935    c-3.957-3.957-5.936-8.733-5.936-14.331c0-5.597,1.979-10.373,5.936-14.33c3.955-3.957,8.732-5.936,14.33-5.936    c5.596,0,10.373,1.979,14.33,5.936S269.241,38.449,269.241,44.045z M248.976,29.571c-4.006,0-7.418,1.41-10.242,4.233    c-2.822,2.823-4.232,6.237-4.232,10.241c0,4.005,1.41,7.419,4.232,10.241c2.824,2.823,6.236,4.234,10.242,4.234    c4.004,0,7.418-1.411,10.24-4.234c2.824-2.822,4.234-6.236,4.234-10.241c0-4.004-1.41-7.418-4.234-10.241    C256.394,30.981,252.979,29.571,248.976,29.571z"/>
	</g>
</g>
<g id="a__x2F__blog" display="none">
	
		<text transform="matrix(1 0 0 1 -117.9961 187.1743)" display="inline" fill="#FE6D6D" font-family="'Comfortaa'" font-size="117.1284">a</text>
	<text transform="matrix(1 0 0 1 -22.1006 181.3765)" display="inline" font-family="'Comfortaa'" font-size="92.5712">vlog</text>
	<rect x="-38.35" y="104.793" display="inline" fill="#FE6D6D" width="4.105" height="96.467"/>
	
		<text transform="matrix(1 0 0 1 -117.9961 300.0615)" display="inline" fill="#FE6D6D" font-family="'Comfortaa'" font-size="117.1284">a</text>
	<text transform="matrix(1 0 0 1 -22.1006 294.2627)" display="inline" font-family="'Comfortaa'" font-size="92.5712">blog</text>
	<rect x="-38.35" y="217.68" display="inline" fill="#FE6D6D" width="4.105" height="96.467"/>
	
		<text transform="matrix(1 0 0 1 -115.9434 68.1304)" display="inline" fill="#FE6D6D" font-family="'Comfortaa'" font-size="117.1284">a</text>
	<rect x="-36.298" y="-14.251" display="inline" fill="#FE6D6D" width="4.105" height="96.467"/>
</g>
<g id="a__x2F__návrh" display="none">
	
		<text transform="matrix(1 0 0 1 -97.9971 164.1016)" display="inline" fill="#FE6D6D" font-family="'Comfortaa'" font-size="127.2011">a</text>
	<text transform="matrix(1 0 0 1 6.1436 157.8047)" display="inline" font-family="'Comfortaa'" font-size="100.532">návrh</text>
	<rect x="-11.213" y="75.7" display="inline" fill="#FE6D6D" width="3.238" height="103.603"/>
</g>
<g id="Vrstva_3" display="none">
	<rect x="235.81" y="95.5" display="inline" width="101" height="420"/>
	<circle display="inline" cx="54.81" cy="147" r="43"/>
	<path display="inline" fill="#FE6D6D" d="M68.832,161.295c-4.053,4.054-8.878,6.08-14.476,6.08s-10.374-1.978-14.33-5.935   c-3.957-3.957-5.936-8.733-5.936-14.331c0-5.597,1.979-10.373,5.936-14.33c3.956-3.957,8.732-5.936,14.33-5.936   s10.374,1.979,14.331,5.936c3.956,3.957,5.935,8.733,5.935,14.33v17.37c0,0.797-0.283,1.479-0.85,2.045   c-0.568,0.567-1.249,0.851-2.045,0.851c-0.797,0-1.479-0.283-2.045-0.851c-0.567-0.566-0.851-1.248-0.851-2.045V161.295z    M54.356,132.635c-4.005,0-7.418,1.41-10.24,4.233c-2.823,2.823-4.234,6.237-4.234,10.241c0,4.005,1.411,7.419,4.234,10.241   c2.822,2.823,6.235,4.234,10.24,4.234s7.419-1.411,10.242-4.234c2.822-2.822,4.233-6.236,4.233-10.241   c0-4.004-1.411-7.418-4.233-10.241C61.775,134.045,58.361,132.635,54.356,132.635z"/>
	<circle display="inline" cx="56.81" cy="246" r="43"/>
	<path display="inline" fill="#FFFFFF" d="M72.332,260.295c-4.053,4.054-8.878,6.08-14.476,6.08s-10.374-1.978-14.33-5.935   c-3.957-3.957-5.936-8.733-5.936-14.331c0-5.597,1.979-10.373,5.936-14.33c3.956-3.957,8.732-5.936,14.33-5.936   s10.374,1.979,14.331,5.936c3.956,3.957,5.935,8.733,5.935,14.33v17.37c0,0.797-0.283,1.479-0.85,2.045   c-0.568,0.567-1.249,0.851-2.045,0.851c-0.797,0-1.479-0.283-2.045-0.851c-0.567-0.566-0.851-1.248-0.851-2.045V260.295z    M57.856,231.635c-4.005,0-7.418,1.41-10.24,4.233c-2.823,2.823-4.234,6.237-4.234,10.241c0,4.005,1.411,7.419,4.234,10.241   c2.822,2.823,6.235,4.234,10.24,4.234s7.419-1.411,10.242-4.234c2.822-2.822,4.233-6.236,4.233-10.241   c0-4.004-1.411-7.418-4.233-10.241C65.275,233.045,61.861,231.635,57.856,231.635z"/>
	<circle display="inline" fill="#FE6D6D" cx="182.81" cy="143" r="43"/>
	<path display="inline" fill="#FFFFFF" d="M196.832,157.795c-4.053,4.054-8.878,6.08-14.476,6.08s-10.374-1.978-14.33-5.935   c-3.957-3.957-5.936-8.733-5.936-14.331c0-5.597,1.979-10.373,5.936-14.33c3.956-3.957,8.732-5.936,14.33-5.936   s10.374,1.979,14.331,5.936c3.956,3.957,5.935,8.733,5.935,14.33v17.37c0,0.797-0.283,1.479-0.85,2.045   c-0.568,0.567-1.249,0.851-2.045,0.851c-0.797,0-1.479-0.283-2.045-0.851c-0.567-0.566-0.851-1.248-0.851-2.045V157.795z    M182.356,129.135c-4.005,0-7.418,1.41-10.24,4.233c-2.823,2.823-4.234,6.237-4.234,10.241c0,4.005,1.411,7.419,4.234,10.241   c2.822,2.823,6.235,4.234,10.24,4.234s7.419-1.411,10.242-4.234c2.822-2.822,4.233-6.236,4.233-10.241   c0-4.004-1.411-7.418-4.233-10.241C189.775,130.545,186.361,129.135,182.356,129.135z"/>
	<circle display="inline" fill="#FE6D6D" cx="180.81" cy="246" r="43"/>
	<path display="inline" d="M196.332,260.295c-4.053,4.054-8.878,6.08-14.476,6.08s-10.374-1.978-14.33-5.935   c-3.957-3.957-5.936-8.733-5.936-14.331c0-5.597,1.979-10.373,5.936-14.33c3.956-3.957,8.732-5.936,14.33-5.936   s10.374,1.979,14.331,5.936c3.956,3.957,5.935,8.733,5.935,14.33v17.37c0,0.797-0.283,1.479-0.85,2.045   c-0.568,0.567-1.249,0.851-2.045,0.851c-0.797,0-1.479-0.283-2.045-0.851c-0.567-0.566-0.851-1.248-0.851-2.045V260.295z    M181.856,231.635c-4.005,0-7.418,1.41-10.24,4.233c-2.823,2.823-4.234,6.237-4.234,10.241c0,4.005,1.411,7.419,4.234,10.241   c2.822,2.823,6.235,4.234,10.24,4.234s7.419-1.411,10.242-4.234c2.822-2.822,4.233-6.236,4.233-10.241   c0-4.004-1.411-7.418-4.233-10.241C189.275,233.045,185.861,231.635,181.856,231.635z"/>
	<circle display="inline" fill="#FFFFFF" cx="287.81" cy="146" r="43"/>
	<path display="inline" d="M303.332,160.295c-4.053,4.054-8.878,6.08-14.476,6.08s-10.374-1.978-14.33-5.935   c-3.957-3.957-5.936-8.733-5.936-14.331c0-5.597,1.979-10.373,5.936-14.33c3.956-3.957,8.732-5.936,14.33-5.936   s10.374,1.979,14.331,5.936c3.956,3.957,5.935,8.733,5.935,14.33v17.37c0,0.797-0.283,1.479-0.85,2.045   c-0.568,0.567-1.249,0.851-2.045,0.851c-0.797,0-1.479-0.283-2.045-0.851c-0.567-0.566-0.851-1.248-0.851-2.045V160.295z    M288.856,131.635c-4.005,0-7.418,1.41-10.24,4.233c-2.823,2.823-4.234,6.237-4.234,10.241c0,4.005,1.411,7.419,4.234,10.241   c2.822,2.823,6.235,4.234,10.24,4.234s7.419-1.411,10.242-4.234c2.822-2.822,4.233-6.236,4.233-10.241   c0-4.004-1.411-7.418-4.233-10.241C296.275,133.045,292.861,131.635,288.856,131.635z"/>
	<circle display="inline" fill="#FFFFFF" cx="286.81" cy="247" r="43"/>
	<path display="inline" fill="#FE6D6D" d="M302.332,261.295c-4.053,4.054-8.878,6.08-14.476,6.08s-10.374-1.978-14.33-5.935   c-3.957-3.957-5.936-8.733-5.936-14.331c0-5.597,1.979-10.373,5.936-14.33c3.956-3.957,8.732-5.936,14.33-5.936   s10.374,1.979,14.331,5.936c3.956,3.957,5.935,8.733,5.935,14.33v17.37c0,0.797-0.283,1.479-0.85,2.045   c-0.568,0.567-1.249,0.851-2.045,0.851c-0.797,0-1.479-0.283-2.045-0.851c-0.567-0.566-0.851-1.248-0.851-2.045V261.295z    M287.856,232.635c-4.005,0-7.418,1.41-10.24,4.233c-2.823,2.823-4.234,6.237-4.234,10.241c0,4.005,1.411,7.419,4.234,10.241   c2.822,2.823,6.235,4.234,10.24,4.234s7.419-1.411,10.242-4.234c2.822-2.822,4.233-6.236,4.233-10.241   c0-4.004-1.411-7.418-4.233-10.241C295.275,234.045,291.861,232.635,287.856,232.635z"/>
	<circle display="inline" fill="none" stroke="#000000" stroke-width="2" stroke-miterlimit="10" cx="53.81" cy="347" r="43"/>
	<path display="inline" fill="#FE6D6D" d="M69.332,361.295c-4.053,4.054-8.878,6.08-14.476,6.08s-10.374-1.978-14.33-5.935   c-3.957-3.957-5.936-8.733-5.936-14.331c0-5.597,1.979-10.373,5.936-14.33c3.956-3.957,8.732-5.936,14.33-5.936   s10.374,1.979,14.331,5.936c3.956,3.957,5.935,8.733,5.935,14.33v17.37c0,0.797-0.283,1.479-0.85,2.045   c-0.568,0.567-1.249,0.851-2.045,0.851c-0.797,0-1.479-0.283-2.045-0.851c-0.567-0.566-0.851-1.248-0.851-2.045V361.295z    M54.856,332.635c-4.005,0-7.418,1.41-10.24,4.233c-2.823,2.823-4.234,6.237-4.234,10.241c0,4.005,1.411,7.419,4.234,10.241   c2.822,2.823,6.235,4.234,10.24,4.234s7.419-1.411,10.242-4.234c2.822-2.822,4.233-6.236,4.233-10.241   c0-4.004-1.411-7.418-4.233-10.241C62.275,334.045,58.861,332.635,54.856,332.635z"/>
	<circle display="inline" fill="none" stroke="#F26C6E" stroke-width="2" stroke-miterlimit="10" cx="182.81" cy="347" r="43"/>
	<path display="inline" d="M198.332,361.295c-4.053,4.054-8.878,6.08-14.476,6.08s-10.374-1.978-14.33-5.935   c-3.957-3.957-5.936-8.733-5.936-14.331c0-5.597,1.979-10.373,5.936-14.33c3.956-3.957,8.732-5.936,14.33-5.936   s10.374,1.979,14.331,5.936c3.956,3.957,5.935,8.733,5.935,14.33v17.37c0,0.797-0.283,1.479-0.85,2.045   c-0.568,0.567-1.249,0.851-2.045,0.851c-0.797,0-1.479-0.283-2.045-0.851c-0.567-0.566-0.851-1.248-0.851-2.045V361.295z    M183.856,332.635c-4.005,0-7.418,1.41-10.24,4.233c-2.823,2.823-4.234,6.237-4.234,10.241c0,4.005,1.411,7.419,4.234,10.241   c2.822,2.823,6.235,4.234,10.24,4.234s7.419-1.411,10.242-4.234c2.822-2.822,4.233-6.236,4.233-10.241   c0-4.004-1.411-7.418-4.233-10.241C191.275,334.045,187.861,332.635,183.856,332.635z"/>
	<circle display="inline" fill="none" stroke="#FFFFFF" stroke-width="2" stroke-miterlimit="10" cx="287.81" cy="349" r="43"/>
	<path display="inline" fill="#FE6D6D" d="M301.832,363.295c-4.053,4.054-8.878,6.08-14.476,6.08s-10.374-1.978-14.33-5.935   c-3.957-3.957-5.936-8.733-5.936-14.331c0-5.597,1.979-10.373,5.936-14.33c3.956-3.957,8.732-5.936,14.33-5.936   s10.374,1.979,14.331,5.936c3.956,3.957,5.935,8.733,5.935,14.33v17.37c0,0.797-0.283,1.479-0.85,2.045   c-0.568,0.567-1.249,0.851-2.045,0.851c-0.797,0-1.479-0.283-2.045-0.851c-0.567-0.566-0.851-1.248-0.851-2.045V363.295z    M287.356,334.635c-4.005,0-7.418,1.41-10.24,4.233c-2.823,2.823-4.234,6.237-4.234,10.241c0,4.005,1.411,7.419,4.234,10.241   c2.822,2.823,6.235,4.234,10.24,4.234s7.419-1.411,10.242-4.234c2.822-2.822,4.233-6.236,4.233-10.241   c0-4.004-1.411-7.418-4.233-10.241C294.775,336.045,291.361,334.635,287.356,334.635z"/>
	<circle display="inline" fill="none" stroke="#FFFFFF" stroke-width="2" stroke-miterlimit="10" cx="283.81" cy="463" r="43"/>
	<path display="inline" fill="#FFFFFF" d="M299.332,477.295c-4.053,4.054-8.878,6.08-14.476,6.08s-10.374-1.978-14.33-5.935   c-3.957-3.957-5.936-8.733-5.936-14.331c0-5.597,1.979-10.373,5.936-14.33c3.956-3.957,8.732-5.936,14.33-5.936   s10.374,1.979,14.331,5.936c3.956,3.957,5.935,8.733,5.935,14.33v17.37c0,0.797-0.283,1.479-0.85,2.045   c-0.568,0.567-1.249,0.851-2.045,0.851c-0.797,0-1.479-0.283-2.045-0.851c-0.567-0.566-0.851-1.248-0.851-2.045V477.295z    M284.856,448.635c-4.005,0-7.418,1.41-10.24,4.233c-2.823,2.823-4.234,6.237-4.234,10.241c0,4.005,1.411,7.419,4.234,10.241   c2.822,2.823,6.235,4.234,10.24,4.234s7.419-1.411,10.242-4.234c2.822-2.822,4.233-6.236,4.233-10.241   c0-4.004-1.411-7.418-4.233-10.241C292.275,450.045,288.861,448.635,284.856,448.635z"/>
	<circle display="inline" fill="none" stroke="#F26C6E" stroke-width="2" stroke-miterlimit="10" cx="184.81" cy="463" r="43"/>
	<path display="inline" fill="#FE6D6D" d="M200.332,477.295c-4.053,4.054-8.878,6.08-14.476,6.08s-10.374-1.978-14.33-5.935   c-3.957-3.957-5.936-8.733-5.936-14.331c0-5.597,1.979-10.373,5.936-14.33c3.956-3.957,8.732-5.936,14.33-5.936   s10.374,1.979,14.331,5.936c3.956,3.957,5.935,8.733,5.935,14.33v17.37c0,0.797-0.283,1.479-0.85,2.045   c-0.568,0.567-1.249,0.851-2.045,0.851c-0.797,0-1.479-0.283-2.045-0.851c-0.567-0.566-0.851-1.248-0.851-2.045V477.295z    M185.856,448.635c-4.005,0-7.418,1.41-10.24,4.233c-2.823,2.823-4.234,6.237-4.234,10.241c0,4.005,1.411,7.419,4.234,10.241   c2.822,2.823,6.235,4.234,10.24,4.234s7.419-1.411,10.242-4.234c2.822-2.822,4.233-6.236,4.233-10.241   c0-4.004-1.411-7.418-4.233-10.241C193.275,450.045,189.861,448.635,185.856,448.635z"/>
	<circle display="inline" fill="none" stroke="#000000" stroke-width="2" stroke-miterlimit="10" cx="53.81" cy="459" r="43"/>
	<path display="inline" d="M69.332,473.295c-4.053,4.054-8.878,6.08-14.476,6.08s-10.374-1.978-14.33-5.935   c-3.957-3.957-5.936-8.733-5.936-14.331c0-5.597,1.979-10.373,5.936-14.33c3.956-3.957,8.732-5.936,14.33-5.936   s10.374,1.979,14.331,5.936c3.956,3.957,5.935,8.733,5.935,14.33v17.37c0,0.797-0.283,1.479-0.85,2.045   c-0.568,0.567-1.249,0.851-2.045,0.851c-0.797,0-1.479-0.283-2.045-0.851c-0.567-0.566-0.851-1.248-0.851-2.045V473.295z    M54.856,444.635c-4.005,0-7.418,1.41-10.24,4.233c-2.823,2.823-4.234,6.237-4.234,10.241c0,4.005,1.411,7.419,4.234,10.241   c2.822,2.823,6.235,4.234,10.24,4.234s7.419-1.411,10.242-4.234c2.822-2.822,4.233-6.236,4.233-10.241   c0-4.004-1.411-7.418-4.233-10.241C62.275,446.045,58.861,444.635,54.856,444.635z"/>
</g>
<g id="a_pink_x2F_white" display="none">
	<circle display="inline" fill="#FE6D6D" cx="108.81" cy="66" r="124"/>
	<path display="inline" fill="#FFFFFF" d="M149.247,108.665c-11.688,11.69-25.602,17.533-41.744,17.533s-29.916-5.703-41.324-17.114   C54.768,97.673,49.063,83.9,49.063,67.757c0-16.139,5.706-29.912,17.116-41.324C77.587,15.022,91.36,9.316,107.502,9.316   s29.917,5.706,41.327,17.117c11.408,11.412,17.114,25.185,17.114,41.324v50.091c0,2.298-0.817,4.264-2.451,5.897   c-1.639,1.636-3.602,2.453-5.897,2.453c-2.298,0-4.264-0.817-5.897-2.453c-1.635-1.634-2.452-3.6-2.452-5.897V108.665z    M107.502,26.017c-11.548,0-21.391,4.066-29.529,12.208c-8.142,8.141-12.21,17.987-12.21,29.532   c0,11.549,4.069,21.395,12.21,29.533c8.138,8.142,17.981,12.211,29.529,12.211c11.55,0,21.395-4.069,29.536-12.211   c8.139-8.139,12.208-17.984,12.208-29.533c0-11.545-4.069-21.391-12.208-29.532C128.897,30.083,119.052,26.017,107.502,26.017z"/>
</g>
<g id="font" display="none">
	<text transform="matrix(1 0 0 1 -112.1904 -125.5)" display="inline" font-family="'Comfortaa'" font-size="12">FONT PÍSMA: Comfortaa</text>
</g>
</svg>